<?xml version="1.0" standalone="no"?>
<!DOCTYPE svg PUBLIC "-//W3C//DTD SVG 20010904//EN"
 "http://www.w3.org/TR/2001/REC-SVG-20010904/DTD/svg10.dtd">
<svg version="1.0" xmlns="http://www.w3.org/2000/svg"
 width="1092.000000pt" height="1092.000000pt" viewBox="0 0 1092.000000 1092.000000"
 preserveAspectRatio="xMidYMid meet">
<metadata>
Created by potrace 1.14, written by Peter Selinger 2001-2017
</metadata>
<g transform="translate(0.000000,1092.000000) scale(0.100000,-0.100000)"
fill="#000000" stroke="none">
<path d="M5355 10902 c-59 -20 -109 -53 -148 -96 -22 -25 -146 -233 -238 -401
-9 -16 -31 -54 -48 -83 -17 -29 -31 -56 -31 -59 0 -4 -11 -23 -24 -42 -13 -20
-66 -112 -119 -206 -52 -93 -103 -184 -114 -202 -21 -37 -148 -260 -260 -458
-309 -546 -539 -951 -681 -1200 -91 -159 -173 -303 -182 -320 -9 -16 -57 -100
-105 -185 -48 -85 -99 -175 -113 -200 -14 -25 -55 -97 -91 -160 -36 -63 -66
-117 -66 -120 0 -2 1047 -5 2327 -5 l2327 0 -22 40 c-39 68 -368 649 -378 665
-11 18 -192 338 -227 400 -29 52 -455 804 -547 965 -151 265 -610 1073 -629
1108 -11 21 -25 46 -31 55 -5 9 -28 49 -50 87 -22 39 -44 78 -50 87 -5 9 -25
45 -44 80 -77 142 -126 197 -210 236 -70 32 -175 38 -246 14z"/>
<path d="M3977 10685 c-20 -7 -102 -56 -184 -109 -426 -280 -573 -377 -938
-614 -88 -58 -236 -155 -330 -216 -93 -61 -233 -152 -310 -203 -77 -50 -212
-138 -300 -196 -146 -95 -334 -218 -720 -471 -553 -361 -526 -340 -507 -403
11 -37 19 -45 86 -83 17 -9 112 -66 211 -125 99 -60 192 -115 207 -124 15 -9
99 -59 185 -111 87 -52 167 -100 178 -106 11 -6 178 -105 370 -220 193 -116
376 -225 409 -244 32 -19 70 -43 85 -52 38 -24 47 -22 65 15 9 17 26 48 37 67
19 32 133 235 197 350 14 25 108 194 210 375 232 414 358 640 407 730 21 39
49 87 62 107 13 21 23 40 23 42 0 2 24 46 54 98 29 51 64 113 78 138 58 105
237 426 318 570 48 85 100 180 117 210 16 30 40 73 53 95 117 203 150 273 150
314 0 114 -112 201 -213 166z"/>
<path d="M6856 10687 c-82 -20 -146 -123 -124 -201 7 -26 54 -114 240 -446 94
-167 140 -252 152 -277 6 -13 14 -23 19 -23 4 0 7 -4 7 -8 0 -5 30 -62 66
-128 36 -65 82 -148 101 -184 20 -36 39 -69 43 -75 4 -5 20 -32 35 -60 15 -27
80 -144 145 -260 64 -115 128 -230 142 -255 14 -25 89 -160 168 -300 143 -256
170 -304 213 -382 13 -24 68 -121 122 -217 54 -96 112 -200 129 -231 112 -203
141 -250 149 -250 8 0 225 126 317 185 40 25 825 494 855 511 20 10 211 125
457 272 132 79 153 102 143 154 -7 35 -34 56 -285 219 -237 154 -391 254 -620
404 -295 193 -373 244 -510 334 -80 53 -153 100 -162 106 -21 12 -586 382
-821 537 -89 59 -169 111 -177 115 -8 5 -60 38 -115 74 -214 141 -512 336
-548 358 -50 31 -93 39 -141 28z"/>
<path d="M410 7792 c-13 -2 -35 -15 -47 -29 l-23 -24 0 -1764 0 -1763 26 -31
c27 -33 56 -39 97 -20 14 6 50 53 86 113 34 55 81 130 103 166 22 36 48 79 58
95 25 44 198 324 225 365 12 19 84 136 160 260 75 124 147 241 160 260 12 19
84 136 160 260 75 124 146 239 156 255 31 48 401 649 470 763 34 56 60 104 58
106 -4 3 -440 265 -500 300 -20 12 -152 91 -293 176 -141 85 -272 164 -291
175 -20 11 -118 69 -218 130 -100 60 -191 115 -202 121 -11 6 -38 22 -60 36
-65 41 -98 54 -125 50z"/>
<path d="M10458 7782 c-21 -9 -397 -233 -837 -497 -558 -335 -799 -484 -796
-494 3 -8 78 -132 168 -277 89 -145 171 -279 182 -298 15 -25 466 -755 607
-984 9 -15 23 -38 31 -52 17 -31 190 -312 222 -360 12 -19 107 -172 209 -339
103 -168 195 -311 204 -318 36 -26 102 -8 121 34 17 37 15 3519 -2 3552 -6 14
-26 30 -42 37 -26 10 -37 10 -67 -4z"/>
<path d="M3320 6481 c0 -2 47 -85 104 -185 57 -99 114 -199 126 -221 12 -22
65 -114 118 -205 52 -91 109 -190 125 -220 16 -30 33 -59 37 -65 5 -5 19 -30
32 -55 14 -25 87 -153 163 -285 75 -132 147 -258 160 -280 30 -56 338 -592
364 -635 11 -19 24 -42 28 -50 4 -8 38 -69 76 -135 38 -66 83 -145 100 -175
16 -30 38 -67 49 -82 10 -14 18 -29 18 -32 0 -3 13 -27 29 -54 15 -26 39 -68
53 -93 14 -24 69 -120 123 -214 98 -171 137 -239 162 -285 8 -14 29 -50 46
-81 18 -30 75 -130 127 -222 52 -92 97 -167 100 -167 3 0 14 17 25 38 11 20
31 55 44 77 14 22 50 85 81 140 63 112 78 137 160 280 31 55 68 120 82 145 14
25 133 232 263 460 131 228 249 435 263 460 14 25 149 261 300 525 151 264
285 498 297 520 37 64 170 298 183 320 80 133 439 771 436 774 -5 5 -4274 7
-4274 2z"/>
<path d="M2475 6122 c-190 -281 -596 -882 -810 -1197 -144 -213 -324 -478
-427 -630 -101 -149 -88 -130 -176 -260 -37 -55 -187 -275 -332 -490 -145
-214 -290 -428 -321 -475 -68 -100 -80 -148 -55 -214 32 -83 78 -105 258 -121
35 -4 79 -8 98 -10 19 -2 66 -7 103 -10 37 -4 76 -8 87 -10 10 -2 54 -7 97
-10 43 -4 86 -9 95 -10 9 -2 45 -6 80 -10 63 -6 117 -12 193 -20 37 -4 86 -9
205 -21 25 -2 61 -6 80 -9 36 -5 95 -11 190 -20 30 -3 71 -7 90 -10 36 -5 119
-13 200 -20 25 -3 68 -7 95 -10 106 -12 122 -14 185 -20 36 -4 79 -9 95 -10
17 -2 59 -6 95 -10 36 -3 76 -8 90 -10 25 -4 79 -10 195 -20 33 -3 71 -7 85
-10 14 -2 54 -7 90 -10 36 -4 79 -8 95 -10 17 -2 62 -6 100 -10 39 -3 85 -8
103 -11 19 -2 62 -7 95 -10 34 -3 73 -7 87 -9 14 -2 54 -6 90 -10 36 -3 81 -8
100 -10 19 -3 60 -7 90 -10 89 -8 153 -15 190 -20 19 -2 62 -7 95 -10 33 -3
71 -8 85 -10 14 -2 57 -6 95 -9 39 -4 86 -8 105 -11 46 -6 102 -12 230 -25 58
-6 121 -13 140 -15 19 -3 66 -7 103 -11 l68 -5 -12 23 c-6 13 -38 68 -69 123
-32 55 -66 116 -77 135 -11 19 -84 148 -163 285 -79 138 -154 270 -168 295
-14 25 -36 62 -49 82 -12 21 -23 39 -23 42 0 2 -30 55 -66 117 -37 63 -74 128
-83 144 -9 17 -135 238 -281 493 -146 254 -276 481 -289 505 -13 23 -114 200
-224 392 -110 193 -211 370 -225 395 -14 25 -45 78 -69 118 -24 41 -43 75 -43
77 0 1 -36 64 -80 140 -44 76 -80 139 -80 140 0 2 -19 36 -43 77 -42 70 -67
113 -123 216 -15 26 -35 59 -45 74 -11 14 -19 29 -19 33 0 6 -80 145 -84 145
0 0 -64 -94 -141 -208z"/>
<path d="M8255 6248 c-26 -46 -56 -97 -65 -114 -34 -60 -943 -1649 -962 -1681
-10 -18 -27 -49 -38 -68 -11 -19 -28 -50 -39 -67 -17 -31 -202 -355 -241 -423
-9 -16 -135 -237 -280 -490 -145 -253 -317 -554 -383 -670 -66 -115 -134 -235
-150 -265 -17 -30 -38 -66 -47 -80 -10 -14 -27 -44 -38 -67 l-20 -43 22 0 c12
0 57 4 101 9 44 6 109 13 145 16 36 3 76 8 90 10 14 3 52 7 85 10 59 5 127 12
195 20 19 2 66 7 105 11 38 3 76 7 85 9 8 2 49 6 90 9 41 4 91 9 110 11 35 4
197 22 280 30 25 2 86 9 135 15 50 5 115 12 145 15 30 3 71 8 90 10 19 2 64 7
100 10 36 3 76 7 90 10 14 2 54 7 90 10 36 3 81 8 100 10 19 2 60 7 90 10 30
3 71 8 90 10 19 2 69 7 110 11 41 3 83 8 93 10 10 1 53 6 95 10 42 3 84 7 92
9 8 1 44 6 80 9 36 4 85 9 110 12 25 2 65 6 90 9 85 8 165 17 180 20 8 1 53 6
100 10 47 4 92 9 100 10 8 1 44 6 80 9 36 4 79 8 95 10 17 2 64 7 105 10 41 4
86 9 100 11 14 3 115 14 225 25 110 11 216 22 235 24 19 3 62 7 95 11 255 26
255 26 302 61 40 30 67 100 60 153 -5 39 -38 91 -380 596 -67 99 -203 299
-301 445 -99 146 -216 319 -261 385 -45 66 -139 206 -210 310 -71 105 -170
251 -220 325 -51 74 -144 212 -208 307 -64 95 -132 195 -152 223 -19 27 -35
54 -35 59 0 5 -4 11 -8 13 -4 2 -88 122 -187 268 -145 215 -298 442 -311 458
-1 2 -23 -34 -49 -80z"/>
<path d="M733 2039 c-29 -11 -55 -62 -49 -96 5 -25 50 -73 68 -73 6 0 557
-246 798 -357 30 -14 114 -52 187 -84 73 -32 140 -63 150 -68 10 -6 56 -27
103 -47 82 -36 136 -60 275 -124 35 -16 79 -36 97 -43 18 -8 125 -56 238 -107
684 -309 1055 -476 1530 -690 173 -77 329 -147 345 -155 30 -13 106 -48 227
-104 164 -75 209 -91 248 -91 55 0 110 32 142 81 l26 40 0 724 0 725 -21 1
c-12 0 -31 2 -42 4 -17 4 -91 12 -175 20 -14 1 -49 5 -77 9 -29 3 -77 8 -105
11 -29 3 -69 7 -88 10 -19 2 -62 7 -95 10 -33 3 -71 8 -85 10 -25 4 -90 10
-197 20 -32 3 -76 8 -98 12 -22 3 -51 7 -65 8 -66 6 -163 17 -178 20 -9 1 -52
6 -94 10 -43 3 -88 8 -100 10 -13 2 -54 6 -91 10 -37 3 -76 8 -85 10 -9 1 -49
6 -87 9 -39 4 -80 8 -90 10 -11 2 -56 7 -99 11 -43 4 -88 8 -99 11 -12 2 -50
6 -86 9 -36 3 -77 7 -91 10 -14 2 -54 7 -90 10 -36 3 -101 10 -145 15 -44 5
-107 12 -140 15 -33 3 -76 8 -95 10 -52 7 -108 13 -175 20 -33 3 -71 8 -85 10
-14 2 -55 6 -92 10 -37 3 -75 7 -85 9 -10 2 -56 7 -103 11 -47 4 -87 8 -90 10
-3 1 -41 6 -85 10 -44 4 -96 9 -115 12 -36 5 -47 6 -165 17 -38 4 -77 9 -85
11 -8 2 -49 7 -90 10 -41 4 -86 8 -100 10 -14 2 -54 6 -90 10 -36 4 -76 8 -90
10 -14 2 -52 7 -85 10 -83 7 -166 16 -190 20 -11 1 -30 -1 -42 -6z"/>
<path d="M10128 2045 c-2 -1 -34 -6 -73 -10 -38 -4 -83 -8 -100 -11 -16 -2
-55 -6 -85 -9 -30 -3 -71 -8 -90 -10 -19 -3 -161 -18 -315 -35 -154 -16 -296
-32 -315 -34 -32 -4 -71 -9 -200 -22 -63 -6 -140 -15 -170 -19 -14 -2 -57 -7
-95 -10 -39 -3 -79 -7 -90 -9 -11 -2 -49 -7 -85 -11 -36 -3 -76 -8 -90 -10
-14 -2 -56 -6 -95 -10 -38 -3 -83 -8 -100 -10 -16 -2 -52 -7 -80 -10 -55 -6
-104 -12 -179 -20 -27 -3 -72 -8 -100 -10 -28 -3 -67 -7 -86 -10 -19 -2 -63
-7 -98 -10 -35 -4 -71 -8 -80 -10 -9 -1 -52 -6 -95 -10 -43 -3 -86 -8 -96 -10
-10 -2 -54 -6 -97 -10 -43 -4 -87 -9 -97 -11 -10 -2 -46 -6 -80 -9 -34 -3 -78
-8 -97 -10 -19 -2 -60 -7 -90 -10 -30 -3 -71 -8 -90 -10 -19 -3 -60 -7 -90
-10 -77 -7 -182 -19 -265 -29 -22 -3 -67 -8 -100 -11 -33 -3 -116 -12 -185
-20 -69 -8 -150 -17 -180 -20 -30 -3 -96 -10 -147 -16 l-91 -11 0 -716 c0
-405 4 -726 9 -741 31 -88 151 -138 235 -97 16 8 97 44 179 81 83 37 173 77
200 90 28 12 118 53 200 90 83 37 188 85 233 106 46 22 85 39 87 39 2 0 46 20
99 45 53 25 99 45 101 45 2 0 48 20 101 45 53 25 97 45 99 45 2 0 36 15 77 34
40 19 190 87 333 151 394 177 526 237 810 365 216 98 1069 482 1225 552 44 20
94 42 195 88 207 93 235 109 245 136 15 38 3 81 -26 101 -23 14 -68 25 -76 18z"/>
</g>
</svg>
